<svg viewBox="1153.4285714285716 220.04220000000004 512.2857142857142 829.8734400000001" preserveAspectRatio="xMidYMid meet" xmlns="http://www.w3.org/2000/svg" version="1.0" style="max-height: 500px" width="512.2857142857142" height="829.8734400000001">
 <g data-darkreader-inline-fill="" style="--darkreader-inline-fill: var(--darkreader-background-fefefe, #191b1c);" fill="#fefefe">
  <path d="M0 785.86 l0 -785.86 1408 0 1408 0 0 785.86 0 785.86 -1408 0 -1408 0 0 -785.86z m1448.52 191.76 l37.25 -55.67 0 -101.51 0 -101.30 34.38 -45.23 c37.86 -50.14 84.11 -110.72 110.31 -144.48 9.62 -12.28 17.60 -23.33 18.21 -24.56 0.41 -1.43 -17.40 -12.28 -42.77 -26.20 l-43.39 -23.53 0.20 -10.23 c0 -5.53 1.64 -16.78 3.48 -24.97 10.44 -45.43 -6.14 -101.92 -40.93 -138.75 -5.32 -5.73 -8.19 -8.39 -6.14 -5.73 2.46 2.87 3.48 7.16 3.27 12.28 -0.20 4.50 1.43 13.51 3.48 20.26 3.07 9.82 3.89 18.42 3.68 44 0 30.49 -0.20 32.54 -6.96 51.98 -17.40 51.16 -60.17 90.87 -112.56 104.37 -18.42 4.91 -54.64 6.34 -73.67 3.27 -8.39 -1.43 -19.24 -2.46 -23.74 -2.25 -7.78 0.41 -9.21 -0.61 -18.42 -10.64 -41.75 -45.84 -51.57 -123.81 -22.92 -181.32 4.09 -8.60 6.14 -13.71 4.30 -11.46 -5.73 7.37 -17.19 33.77 -21.28 49.73 -5.73 21.49 -5.73 49.32 0 70.81 2.46 9 4.30 18.83 4.30 21.90 0 6.55 -2.25 8.39 -32.74 25.17 -11.87 6.55 -25.79 14.53 -31.11 17.60 -5.12 3.27 -12.69 6.96 -16.78 8.39 -4.09 1.43 -7.37 3.27 -7.37 4.09 0 0.82 9 13.30 20.06 27.83 10.85 14.33 33.77 44.61 50.55 67.33 16.99 22.72 44.20 59.14 60.58 81.04 l29.88 39.50 1.43 101.30 1.43 101.30 37.04 55.87 c20.47 30.49 37.66 55.67 38.27 55.67 0.61 -0.20 18.01 -25.17 38.68 -55.87z m-163.72 -122.59 c0.41 -2.46 -1.43 -3.68 -7.78 -4.71 -4.91 -0.82 -9 -2.87 -10.23 -5.12 -1.23 -2.05 -2.05 -12.69 -2.05 -23.33 0 -18.83 -0.20 -19.85 -6.14 -26.40 -7.78 -9 -7.98 -16.78 -0.41 -24.56 5.12 -5.32 5.53 -7.16 6.14 -26.60 0.82 -23.33 3.07 -28.04 13.10 -28.04 3.48 0 6.34 -1.23 7.16 -3.07 1.84 -5.12 -0.61 -5.73 -11.46 -3.07 -16.37 3.89 -19.24 9.41 -20.26 39.50 l-1.02 24.15 -7.57 4.91 c-10.03 6.34 -11.87 9.21 -5.73 9.21 2.66 0 6.96 1.43 9.41 3.27 4.09 2.87 4.50 4.71 4.50 21.90 0 10.44 0.82 21.90 2.05 25.79 2.25 7.78 9 16.17 15.35 18.83 6.14 2.66 14.12 1.23 14.94 -2.66z m269.32 0.20 c9.21 -7.16 11.46 -14.12 11.46 -35.40 0 -17.80 0.41 -19.85 5.12 -25.58 2.87 -3.27 7.37 -6.34 9.82 -6.75 2.46 -0.41 4.71 -2.25 5.12 -4.09 0.41 -2.46 -1.64 -4.09 -7.78 -5.73 -10.64 -2.87 -12.28 -6.96 -12.28 -32.33 0 -27.63 -5.32 -36.22 -23.74 -37.66 -6.96 -0.61 -7.98 0 -8.60 4.09 -0.61 4.09 0.20 4.50 8.80 4.50 8.19 0 9.62 0.61 11.26 5.32 1.23 2.87 2.05 13.30 2.05 23.33 0 17.40 0.20 18.62 6.14 25.17 3.68 4.30 6.14 9.41 6.14 12.69 0 3.27 -2.46 8.39 -6.14 12.69 -3.27 3.68 -6.14 9.21 -6.14 11.87 0 2.87 -0.82 5.12 -2.05 5.12 -1.23 0 -2.05 7.16 -2.05 17.40 l0 17.40 -8.19 5.12 c-4.50 2.87 -8.19 5.53 -8.19 6.14 0 2.87 14.53 0.41 19.24 -3.27z m-237.40 -590.01 c27.01 -20.47 59.35 -29.88 101.51 -29.88 32.95 0 55.46 6.96 82.88 25.99 6.75 4.50 8.19 5.12 4.50 1.84 -18.42 -16.78 -55.67 -31.93 -82.47 -33.56 -44.41 -2.46 -84.11 11.05 -113.38 38.47 -10.03 9.41 -8.60 8.80 6.96 -2.87z"/>
  <path d="M1384.67 979.87 c-1.43 -2.66 -9.41 -15.14 -17.40 -27.83 -16.78 -26.60 -18.42 -33.97 -9 -43.80 l5.53 -5.73 -6.55 0 -6.55 0 0 -58.33 0 -58.33 7.98 0 7.98 0 15.55 39.09 c17.40 43.59 18.62 50.55 10.03 58.12 l-5.73 4.91 7.78 0.20 7.57 0 0 48.09 0 48.09 -7.16 0 c-5.12 0 -7.78 -1.23 -10.03 -4.50z"/>
  <path d="M1419.26 959.40 c-0.61 -10.44 -1.02 -30.49 -0.61 -44.61 l0.61 -25.58 7.16 -1.02 7.16 -1.02 -5.73 -4.30 c-8.80 -7.16 -7.57 -15.35 9.41 -57.10 l14.94 -36.84 9.62 -0.61 9.62 -0.61 0 59.35 0 59.55 -4.50 0 c-4.09 0 -4.09 0.20 -1.02 3.68 6.96 7.57 4.30 15.55 -13.10 42.36 -16.37 25.38 -16.58 25.58 -24.35 25.58 l-7.78 0 -1.43 -18.83z"/>
  <path d="M1386.10 817.17 c-0.61 -2.05 -9 -22.92 -18.42 -46.66 -9.21 -23.53 -16.99 -45.43 -16.99 -48.71 0 -3.89 4.71 -11.87 15.35 -25.99 l15.55 -20.47 10.03 0 10.23 0 0 72.65 0 72.65 -7.16 0 c-5.12 0 -7.78 -1.02 -8.60 -3.48z"/>
  <path d="M1421.71 811.03 c-0.61 -1.02 -1.23 -31.93 -1.64 -69.17 l-0.82 -67.53 9.21 -0.41 9.21 -0.61 15.96 20.47 c15.76 20.06 16.17 20.67 15.14 30.29 -0.41 5.53 -7.57 25.79 -16.99 48.91 l-16.17 39.50 -6.55 0 c-3.48 0 -6.96 -0.61 -7.37 -1.43z"/>
  <path d="M1337.19 692.13 c-1.02 -5.12 -1.84 -5.53 -8.60 -4.91 -7.57 0.82 -7.57 0.61 -27.42 -26.60 -11.05 -14.94 -29.67 -40.32 -41.54 -56.48 -18.83 -25.58 -21.49 -30.29 -21.49 -37.45 l0 -7.98 9 0 c7.37 0 14.12 2.66 36.02 14.53 25.99 14.12 26.81 14.94 29.06 23.13 l2.25 8.60 11.46 -0.82 c11.05 -0.82 12.69 -0.20 39.50 14.33 l28.24 14.94 0 7.37 c0 6.55 -2.87 11.05 -19.85 32.33 -19.24 23.74 -20.26 24.76 -27.83 24.76 -6.75 0 -7.78 -0.61 -8.80 -5.73z"/>
  <path d="M1447.50 674.33 c-16.58 -20.47 -19.03 -24.35 -19.03 -31.31 0 -11.46 2.66 -13.30 51.57 -37.45 5.73 -2.87 22.10 -2.25 22.10 0.82 0.20 1.23 1.84 -2.05 3.68 -7.78 3.27 -9.62 4.30 -10.64 19.24 -18.42 8.60 -4.50 17.40 -9.82 19.44 -11.67 6.34 -5.73 18.21 -9.82 29.27 -9.82 10.03 0 10.23 0.20 10.23 6.14 0 4.91 -9.21 18.21 -42.36 62.42 -40.32 53.41 -42.98 56.28 -49.12 56.28 -3.89 0 -6.75 -1.02 -6.96 -2.46 -0.20 -1.43 -1.23 1.43 -2.66 6.55 -2.25 8.39 -3.07 9.21 -9.41 9.82 -6.75 0.41 -7.98 -0.61 -25.99 -23.13z"/>
  <path d="M1356.84 596.97 c-32.33 -17.80 -37.86 -21.69 -38.47 -25.99 -0.61 -4.71 -1.43 -5.12 -7.37 -4.50 -5.53 0.61 -13.10 -2.66 -39.91 -17.40 l-32.95 -18.01 0.41 -8.19 0.61 -8.19 33.15 -0.61 33.15 -0.41 14.33 10.44 c11.05 7.98 14.53 11.67 14.53 15.35 0 4.50 0.82 4.91 10.85 4.91 5.73 0 16.58 1.84 23.94 4.30 7.37 2.25 19.03 4.71 26.20 5.32 6.96 0.61 13.30 1.84 13.71 2.66 0.61 0.82 8.60 0.20 17.80 -1.43 9.41 -1.64 20.47 -3.48 24.56 -4.09 4.30 -0.61 8.80 -2.46 10.03 -3.89 1.43 -1.64 6.34 -2.87 12.28 -2.87 8.60 0 10.03 -0.61 10.03 -3.89 0 -2.46 5.32 -8.19 13.92 -14.94 l13.71 -10.85 37.45 -0.61 37.25 -0.82 0 7.37 c0 8.19 2.05 6.75 -44 31.93 -21.90 12.07 -28.04 14.33 -34.18 13.92 -7.16 -0.61 -7.78 -0.41 -7.78 4.71 0 4.30 -1.64 6.34 -7.57 9.41 -4.30 2.25 -13.71 7.37 -21.08 11.26 -49.73 27.22 -47.07 26.20 -62.42 25.99 -14.12 -0.20 -14.73 -0.41 -52.19 -20.87z m54.64 -11.05 c-0.41 -3.27 -0.82 -1.02 -0.82 4.50 0 5.73 0.41 8.19 0.82 5.73 0.41 -2.66 0.41 -7.16 0 -10.23z"/>
  <path d="M1531.40 510.20 c-3.07 -1.23 -3.48 -14.12 -0.61 -15.96 1.23 -0.61 5.73 -6.75 10.23 -13.51 7.98 -11.67 8.60 -12.07 17.40 -12.07 7.37 0 13.10 2.46 32.54 13.71 22.31 12.89 23.74 14.12 23.74 20.06 l0 6.55 -16.78 1.23 c-19.65 1.64 -62.83 1.64 -66.51 0z"/>
  <path d="M1209.49 502.83 c0 -8.19 2.05 -10.03 22.31 -22.10 12.69 -7.37 17.19 -9 27.63 -9.41 l12.48 -0.61 8.80 13.30 c5.12 8.19 8.60 15.76 8.60 19.44 l0 6.14 -39.91 0 -39.91 0 0 -6.75z"/>
 </g>
 <g data-darkreader-inline-fill="" style="--darkreader-inline-fill: var(--darkreader-background-08562d, #064524);" fill="#08562d">
  <path d="M1368.30 988.06 l-39.91 -59.96 -1.43 -101.30 -1.43 -101.30 -27.83 -36.84 c-15.14 -20.26 -38.68 -51.57 -52.19 -69.58 -13.30 -18.01 -36.43 -48.71 -51.16 -68.15 -14.73 -19.44 -29.06 -38.68 -31.93 -42.57 -5.53 -8.19 -5.53 -8.39 10.23 -15.14 3.89 -1.64 11.26 -5.53 16.37 -8.39 5.12 -2.87 19.65 -11.26 32.54 -18.42 33.36 -18.42 31.52 -16.17 26.40 -34.59 -4.91 -18.42 -5.93 -55.67 -1.84 -74.70 7.37 -33.56 24.56 -64.47 49.73 -88.20 37.66 -35.61 71.01 -47.48 127.09 -45.43 18.83 0.61 25.99 1.84 40.73 7.16 45.43 15.96 84.11 53.21 100.69 97 11.46 30.49 14.73 68.97 8.19 98.44 -1.84 8.19 -3.48 16.78 -3.68 18.83 -0.20 3.27 9.41 9.21 45.84 29.27 27.83 15.14 46.05 26.20 45.84 28.04 -0.20 1.64 -9.41 14.73 -20.67 29.06 -29.47 38.27 -74.29 97 -113.58 148.78 l-34.38 45.23 0 101.51 0 101.51 -39.91 59.14 c-22.10 32.74 -40.93 59.55 -41.95 59.96 -1.02 0.41 -19.85 -26.40 -41.75 -59.35z m27.42 -51.78 c0 -39.09 -0.20 -41.95 -3.68 -41.95 -3.89 0 -33.15 23.53 -33.15 26.60 0 1.02 6.55 12.28 14.53 24.97 7.98 12.69 15.96 25.17 17.40 27.83 1.64 2.46 3.48 4.50 3.89 4.50 0.61 0 1.02 -18.83 1.02 -41.95z m50.96 10.23 c9.21 -14.12 16.37 -26.40 15.76 -27.42 -3.07 -4.91 -32.33 -24.97 -35 -23.94 -2.46 0.82 -3.07 5.73 -3.07 25.17 0 27.83 2.05 51.78 4.09 51.78 1.02 0 9.21 -11.46 18.21 -25.58z m18.62 -99.46 c0 -67.33 -0.61 -67.74 -21.90 -15.14 -8.19 20.26 -14.94 37.86 -14.94 38.88 0.20 1.84 33.97 29.67 36.02 29.67 0.41 0 0.82 -23.94 0.82 -53.41z m-89.23 37.66 c7.98 -6.34 14.94 -11.87 15.35 -12.28 1.43 -1.02 -30.90 -80.43 -32.74 -80.43 -1.02 0 -1.84 23.13 -1.84 52.19 0 37.66 0.61 52.19 2.25 52.19 1.43 0 9 -5.32 16.99 -11.67z m19.65 -136.71 c0 -79.81 0.82 -78.18 -23.33 -46.25 l-15.35 20.26 16.99 42.57 c9.41 23.53 17.60 44.41 18.21 46.46 0.82 1.84 1.84 3.48 2.46 3.48 0.61 0 1.02 -29.88 1.02 -66.51z m66.92 -23.94 c1.43 -4.50 -29.88 -44.61 -34.18 -44 -2.66 0.41 -3.07 8.39 -2.25 61.80 0.41 33.77 1.23 62.21 1.84 63.24 0.82 1.43 31.11 -69.58 34.59 -81.04z m-94.75 -57.51 c10.85 -13.51 19.65 -24.97 19.65 -25.58 -0.20 -2.25 -55.26 -31.11 -59.35 -31.11 -2.25 0 -4.30 0.82 -4.91 1.64 -0.61 1.02 3.48 16.78 8.80 35.40 5.32 18.42 10.44 36.22 11.26 39.29 0.82 3.27 2.25 5.53 3.27 5.12 1.02 -0.41 10.64 -11.46 21.28 -24.76z m117.27 -15.35 c5.93 -21.08 10.85 -38.88 10.85 -39.70 0 -2.25 -5.32 -2.05 -9.82 0.20 -40.32 19.85 -51.57 26.60 -51.57 31.31 0 2.46 37.66 48.50 38.68 47.48 0.61 -0.41 5.93 -18.21 11.87 -39.29z m-165.36 -0.61 c-4.50 -16.17 -10.03 -35.61 -12.28 -43.18 l-3.89 -13.51 -26.81 -14.53 c-25.99 -14.12 -32.54 -16.58 -32.54 -12.69 0 1.23 9.62 15.14 21.49 31.31 11.87 16.17 30.49 41.54 41.34 56.28 10.85 14.94 20.06 26.81 20.47 26.40 0.41 -0.41 -3.07 -13.92 -7.78 -30.08z m216.93 -30.90 c32.33 -43.18 40.32 -54.85 37.04 -54.85 -5.53 0 -18.42 5.32 -23.13 9.82 -2.05 1.84 -10.85 7.16 -19.44 11.67 -15.35 7.98 -15.96 8.60 -19.44 19.44 -4.09 12.28 -19.85 68.56 -19.85 71.01 0 2.25 0.61 1.43 44.82 -57.10z m-133.23 -32.74 l-0.61 -25.17 -13.10 -1.43 c-7.37 -0.82 -19.44 -3.27 -27.01 -5.73 -7.57 -2.25 -15.55 -4.09 -17.60 -4.09 -2.05 0 -7.78 4.09 -12.69 9 -6.75 6.75 -8.19 9.41 -6.14 10.64 5.93 3.89 74.49 41.34 76.13 41.54 0.82 0.20 1.23 -11.05 1.02 -24.76z m61.80 -1.23 c7.37 -3.89 16.78 -9 21.08 -11.26 4.09 -2.05 7.57 -4.50 7.57 -5.32 0 -2.66 -17.60 -18.62 -20.47 -18.62 -1.43 0 -4.30 1.23 -5.93 2.66 -2.66 2.25 -29.67 8.19 -47.27 10.23 -2.46 0.41 -3.07 4.91 -3.07 24.35 l0 23.94 17.40 -9.41 c9.62 -5.12 23.33 -12.48 30.70 -16.58z m-137.12 -43.39 c0 -0.82 -6.55 -6.34 -14.53 -12.07 l-14.33 -10.64 -26.81 0.61 c-15.55 0.41 -27.22 1.43 -27.63 2.66 -0.20 1.23 13.92 10.03 31.72 19.65 l32.13 17.80 9.82 -8.19 c5.32 -4.50 9.62 -8.80 9.62 -9.82z m225.12 -5.53 c12.89 -7.16 24.56 -14.12 25.58 -15.14 1.43 -1.43 -8.19 -2.05 -29.67 -1.43 l-31.72 0.61 -14.12 11.05 -13.92 11.26 9.41 8.80 9.21 9 10.85 -5.53 c5.93 -3.07 21.49 -11.46 34.38 -18.62z m-121.56 -2.66 c24.97 -4.50 50.96 -17.80 70.81 -36.43 28.86 -27.01 48.71 -70.81 48.71 -107.44 0 -25.99 -12.89 -62.21 -30.49 -85.34 -7.98 -10.64 -11.67 -22.72 -5.73 -19.24 6.75 4.09 -7.16 -9 -18.01 -16.58 -40.73 -28.86 -78.18 -34.59 -129.95 -20.06 -16.17 4.71 -31.52 12.69 -50.14 26.81 -30.90 23.13 -49.12 55.87 -54.23 97.82 -5.12 41.34 9.62 88 37.66 118.90 7.98 8.80 10.44 10.44 12.89 8.60 2.25 -2.05 5.12 -0.82 14.53 5.73 33.77 23.74 69.79 33.15 103.96 27.22z m164.33 -30.49 l12.89 -1.23 -23.94 -13.71 c-13.10 -7.78 -25.17 -13.92 -26.60 -13.92 -1.64 0 -6.55 5.53 -11.26 12.07 -4.50 6.75 -9.21 12.89 -10.44 13.71 -1.64 0.82 -1.43 1.84 0.41 3.07 3.27 2.05 39.09 2.05 58.94 0z m-321.71 -13.51 c-8.19 -12.48 -9 -13.30 -15.35 -12.28 -6.96 0.82 -37.04 17.19 -41.34 22.51 -2.25 2.66 1.84 3.07 31.52 3.07 l33.97 0 -8.80 -13.30z"/>
  <path d="M1263.72 863.83 c-6.34 -2.66 -13.10 -11.05 -15.35 -18.83 -1.23 -3.89 -2.05 -15.35 -2.05 -25.79 0 -17.19 -0.41 -19.03 -4.50 -21.90 -2.46 -1.84 -6.75 -3.27 -9.41 -3.27 -4.30 0 -4.71 -0.82 -4.09 -7.57 0.41 -6.34 2.05 -8.60 9.41 -13.51 l8.80 -5.93 -0.41 -16.58 c-0.41 -34.38 3.68 -42.36 24.76 -47.48 18.83 -4.50 20.87 -3.68 20.06 8.60 -0.61 9.41 -1.02 9.82 -6.96 10.44 -10.64 1.02 -12.69 5.12 -13.51 28.45 -0.61 19.65 -1.02 21.28 -6.14 26.60 l-5.53 5.53 6.14 6.75 c5.73 6.55 5.93 7.78 5.93 26.40 0 10.64 0.82 21.28 2.05 23.33 1.23 2.25 5.32 4.30 10.23 5.12 l8.39 1.43 -0.61 9.41 -0.61 9.62 -11.26 0.41 c-6.14 0.20 -13.10 -0.41 -15.35 -1.23z"/>
  <path d="M1528.74 858.51 c0 -6.14 1.23 -7.78 8.19 -12.28 l8.19 -5.12 0 -17.40 c0 -10.23 0.82 -17.40 2.05 -17.40 1.23 0 2.05 -2.25 2.05 -5.12 0 -2.66 2.66 -7.98 5.93 -11.67 l5.93 -6.75 -5.93 -6.75 c-5.53 -6.34 -5.93 -7.57 -5.93 -24.97 0 -10.03 -0.82 -20.47 -2.05 -23.33 -1.64 -4.71 -3.07 -5.32 -11.26 -5.32 l-9.41 0 0.61 -10.64 0.61 -10.85 13.51 0.20 c24.76 0.61 30.49 7.78 30.49 38.07 0 25.38 1.64 29.47 12.28 32.33 l8.39 2.25 -0.61 9.62 c-0.61 8.19 -1.23 9.62 -5.12 10.23 -2.46 0.41 -6.96 3.48 -9.82 6.75 -4.71 5.73 -5.12 7.78 -5.12 25.58 0 21.28 -2.25 28.24 -11.46 35.40 -4.30 3.27 -8.39 4.30 -18.42 4.30 l-13.10 0 0 -7.16z"/>
 </g>
 <g data-darkreader-inline-fill="" style="--darkreader-inline-fill: var(--darkreader-background-d7ebe3, #1d3a31);" fill="#d7ebe3">
  <path d="M1424.78 965.75 c0.20 -11.05 0.41 -11.67 1.02 -3.89 0.61 4.91 1.84 9.62 2.87 10.44 1.23 0.61 0.82 2.25 -1.23 3.89 -2.66 2.25 -3.07 1.02 -2.66 -10.44z"/>
  <path d="M1354.79 844.19 c0 -51.78 0.82 -61.19 5.12 -54.23 0.61 1.23 0.20 2.05 -0.82 2.05 -1.64 0 -2.25 16.78 -2.25 52.19 0 35.40 0.61 52.19 2.25 52.19 1.02 0 1.43 1.02 0.82 2.05 -4.30 6.96 -5.12 -2.46 -5.12 -54.23z"/>
  <path d="M1544.71 824.74 c0.41 -10.64 1.43 -18.01 2.66 -17.40 2.87 1.84 2.25 28.24 -0.61 32.33 -2.25 2.87 -2.46 0.20 -2.05 -14.94z"/>
  <path d="M1326.96 782.79 c0 -30.29 0.41 -43.18 0.61 -28.24 0.41 14.73 0.41 39.70 0 55.26 -0.20 15.55 -0.61 3.48 -0.61 -27.01z"/>
  <path d="M1424.78 766.42 l0.41 -51.16 1.23 48.09 c0.61 26.40 0.41 49.53 -0.41 51.16 -0.82 1.64 -1.43 -19.85 -1.23 -48.09z"/>
  <path d="M1245.92 745.54 c-0.41 -3.27 -0.20 -8.39 0.61 -11.87 1.02 -4.71 1.43 -3.27 1.64 5.73 0.20 12.28 -0.82 15.35 -2.25 6.14z"/>
  <path d="M1289.30 713.62 c0.82 -8.39 1.02 -8.39 1.64 -1.64 0.41 3.68 0 7.57 -1.02 8.60 -1.02 1.02 -1.23 -2.25 -0.61 -6.96z"/>
  <path d="M1527.11 711.78 l0.61 -10.85 9.21 -0.20 9.21 -0.41 -8.19 1.43 c-7.78 1.23 -8.19 1.64 -8.80 9.21 -0.41 4.91 0.41 8.60 2.05 9.62 2.05 1.43 1.84 1.84 -1.02 1.84 -3.07 0 -3.68 -1.43 -3.07 -10.64z"/>
  <path d="M1416.80 590.42 c0 -9 0.41 -12.48 0.82 -7.57 0.41 4.71 0.41 12.07 0 16.37 -0.41 4.09 -0.82 0.20 -0.82 -8.80z"/>
  <path d="M1383.65 540.07 c-22.72 -4.50 -49.93 -16.78 -64.67 -29.27 -11.26 -9.62 -8.19 -12.48 8.19 -7.98 17.40 4.91 56.69 4.71 75.72 -0.20 53.62 -14.12 95.98 -53.21 113.58 -104.78 6.55 -19.03 6.96 -21.90 6.96 -46.87 -0.20 -23.33 -0.82 -28.65 -5.73 -43.59 -6.96 -21.28 -6.55 -25.58 1.64 -17.60 30.29 30.29 45.23 88 34.79 134.46 -13.10 58.53 -60.99 106.21 -116.24 116.04 -14.33 2.46 -41.34 2.46 -54.23 -0.20z"/>
 </g>
</svg>